<svg width="879" height="252" viewBox="0 0 879 252" fill="none" xmlns="http://www.w3.org/2000/svg">
<path d="M568.5 71C560.118 75.705 528.249 90.7845 477.236 78.6814C441.746 70.261 428.347 55.5063 417.695 43.7766C410.966 36.3666 405.333 30.1637 395.919 27.5277L393 26.8351C434.557 3.29267 473.674 -1.30124 494.321 5.65279C547.074 18.169 566.032 58.6602 569.782 68.0736C573.352 58.358 591.196 17.5903 643.371 3.61003C663.808 -3.93664 703.042 -0.472946 745.261 21.861L742.363 22.6374C733.029 25.5439 727.577 31.9067 721.065 39.5078C710.756 51.5399 697.788 66.6748 662.555 76.1154C611.672 89.7496 579.123 75.502 570.797 71.1121C570.972 70.9225 569.761 71.11 569.761 71.11C569.761 71.11 603.354 51.939 630.228 40.2236C660.474 27.0378 676.182 26.1991 685.938 25.6782C686.211 25.6636 686.48 25.6493 686.743 25.6349C697.792 26.2981 662.402 18.1714 627.256 33.3374C596.218 46.7307 585.261 58.11 569.782 70.6227C552.761 55.61 542.925 47.4861 511.286 34.903C475.718 20.7571 440.577 29.9011 451.602 28.9196C451.866 28.9263 452.135 28.9329 452.408 28.9396C462.175 29.1789 477.9 29.5642 508.515 41.8721C535.607 52.7641 562.632 67.2715 569.761 71.11C569.848 71.393 568.5 71 568.5 71Z" fill="black"/>
<path d="M449.918 230.08H469.996C471.026 233.371 473.027 235.782 476 237.311L460.944 251.18C457.783 249.509 453.291 243.911 453.291 243.911C453.291 243.911 451.101 241.071 450.213 236.912C449.731 234.651 449.918 232.372 449.918 230.08Z" fill="black"/>
<path d="M449.926 163.498V230.902H469.96V227.971H469.994V163.498H449.926Z" fill="black"/>
<path fill-rule="evenodd" clip-rule="evenodd" d="M186.22 249.043C192.364 249.043 199.229 246.986 206.814 242.872C208.684 245.917 211.142 248.241 214.187 249.844L228.691 236.542C224.31 234.298 222.12 230.078 222.12 223.881V194.872C222.12 189.851 221.345 185.336 219.796 181.33C214.935 168.775 203.796 162.498 186.381 162.498C175.162 162.498 164.825 164.982 155.369 169.951L157.773 187.66L158.013 187.82C160.257 185.684 163.97 183.787 169.152 182.131C171.503 181.383 173.907 180.795 176.364 180.368C178.875 179.887 181.412 179.647 183.977 179.647C186.594 179.647 189.052 179.887 191.349 180.368C198.294 181.81 201.98 186.805 202.407 195.353C201.766 195.246 201.045 195.193 200.244 195.193C199.442 195.139 198.721 195.086 198.08 195.033L194.875 194.952C180.771 194.952 169.606 197.731 161.379 203.286C153.793 208.415 150 214.826 150 222.518C150 231.119 153.098 237.69 159.295 242.231C162.341 244.475 166.053 246.184 170.434 247.36C174.815 248.482 180.077 249.043 186.22 249.043ZM198 209.377C199.549 209.377 201.045 209.51 202.487 209.777V226.525C202.487 227.166 202.514 227.78 202.567 228.368C197.813 230.986 192.684 232.295 187.182 232.295C181.733 232.295 177.619 231.493 174.841 229.891C173.399 229.036 172.357 227.967 171.716 226.685C171.128 225.35 170.835 223.827 170.835 222.118C170.835 220.408 171.315 218.779 172.277 217.23C175.482 211.994 182.988 209.377 194.794 209.377H198Z" fill="black"/>
<path d="M22.6777 165.259H0L33.7361 248.998H50.2436L83.3387 165.259H61.1418L42.2303 220.391L22.6777 165.259Z" fill="black"/>
<path d="M350.297 242.172C346.487 244.809 335.432 248.942 327.365 248.942C318.711 248.942 311.926 246.03 307.011 240.207C302.31 234.545 299.959 226.772 299.959 216.889V185.075C299.959 177.758 300 169.317 300 163.498C302.457 163.712 303.945 164 306.617 164H312.62C314.5 164 316.615 163.659 319.5 163.498L319.592 210.157C319.592 221.162 322.584 227.546 328.567 229.309C330.383 229.843 332.36 230.111 334.497 230.111C340.801 230.111 345.876 227.813 349.722 223.219L350 163.498H356.5H363.5H369.595V228.498C370.622 231.738 372.59 234.116 375.5 235.63L360.613 249.498C357.488 247.827 353.046 242.23 353.046 242.23C353.046 242.23 352.706 241.784 352.241 240.986C351.739 241.231 351.099 241.616 350.297 242.172Z" fill="black"/>
<path fill-rule="evenodd" clip-rule="evenodd" d="M652.668 190.844C650.531 196.186 649.463 201.983 649.463 208.233C649.463 220.627 653.923 230.804 662.845 238.764C671.713 246.67 682.932 250.624 696.501 250.624C698.958 250.624 701.523 250.463 704.194 250.143C713.275 249.074 719.846 247.151 723.907 244.373L724.788 231.872C724.948 229.522 725.082 227.225 725.189 224.981C724.387 225.675 723.185 226.423 721.583 227.225C715.493 230.27 708.2 231.792 699.706 231.792C691.586 231.792 684.988 230.216 679.913 227.064C674.838 223.859 671.606 219.398 670.217 213.682H698.424C714.825 213.682 725.696 212.934 731.038 211.438C731.68 209.889 732 207.004 732 202.784C732 191.779 728.608 182.644 721.823 175.378C714.932 167.846 705.796 164.079 694.417 164.079C680.955 164.079 670.057 168.326 661.723 176.821C657.823 180.827 654.805 185.502 652.668 190.844ZM691.933 180.907C702.244 180.907 708.494 186.65 710.685 198.136C709.296 198.243 707.72 198.323 705.957 198.377L699.386 198.617C696.768 198.67 694.097 198.697 691.372 198.697H686.805C684.989 198.697 683.092 198.67 681.115 198.617H675.185C673.316 198.564 671.74 198.51 670.458 198.457C671.152 195.892 672.14 193.542 673.423 191.405C677.643 184.407 683.813 180.907 691.933 180.907Z" fill="black"/>
<path fill-rule="evenodd" clip-rule="evenodd" d="M856.315 244.453C848.728 248.567 841.864 250.624 835.72 250.624C829.577 250.624 824.315 250.063 819.934 248.941C815.553 247.766 811.84 246.056 808.795 243.812C802.599 239.271 799.5 232.7 799.5 224.099C799.5 216.407 803.293 209.996 810.879 204.867C819.106 199.312 830.271 196.533 844.375 196.533L847.58 196.614C848.221 196.667 848.942 196.72 849.744 196.774C850.545 196.774 851.266 196.827 851.907 196.934C851.48 188.386 847.794 183.392 840.849 181.949C838.552 181.468 836.094 181.228 833.477 181.228C830.912 181.228 828.375 181.468 825.864 181.949C823.406 182.376 821.002 182.964 818.652 183.712C813.47 185.368 809.757 187.265 807.513 189.402L807.273 189.241L804.869 171.532C814.325 166.563 824.662 164.079 835.881 164.079C853.296 164.079 864.435 170.356 869.296 182.911C870.845 186.917 871.62 191.432 871.62 196.453V225.462C871.62 231.659 873.81 235.879 878.191 238.123L863.687 251.425C860.642 249.822 858.184 247.498 856.315 244.453ZM851.987 211.358C850.545 211.091 849.049 210.958 847.5 210.958H844.294C832.488 210.958 824.982 213.575 821.777 218.811C820.815 220.36 820.335 221.989 820.335 223.699C820.335 225.408 820.629 226.931 821.216 228.266C821.857 229.549 822.899 230.617 824.341 231.472C827.119 233.074 831.233 233.876 836.682 233.876C842.184 233.876 847.313 232.567 852.067 229.949C852.014 229.362 851.987 228.747 851.987 228.106V211.358Z" fill="black"/>
<path d="M449.918 230.08H469.996C471.026 233.371 473.027 235.782 476 237.311L460.944 251.18C457.783 249.509 453.291 243.911 453.291 243.911C453.291 243.911 451.101 241.071 450.213 236.912C449.731 234.651 449.918 232.372 449.918 230.08Z" fill="black"/>
<path d="M559.5 230.08H579.579C580.608 233.371 582.609 235.782 585.582 237.311L570.526 251.18C567.365 249.509 562.874 243.911 562.874 243.911C562.874 243.911 560.683 241.071 559.796 236.912C559.313 234.651 559.5 232.372 559.5 230.08Z" fill="black"/>
<path d="M568.082 70.6082C556.582 187.257 559.509 233.01 559.509 233.01H579.542V230.08H579.576C579.576 230.08 571.082 210.608 571.082 70.6082C570.582 70.6082 570.582 70.6082 569.582 71.1083C568.582 70.6082 568.082 70.6082 568.082 70.6082Z" fill="black"/>
<path d="M559.5 230.08H579.579C580.608 233.371 582.609 235.782 585.582 237.311L570.526 251.18C567.365 249.509 562.874 243.911 562.874 243.911C562.874 243.911 560.683 241.071 559.796 236.912C559.313 234.651 559.5 232.372 559.5 230.08Z" fill="black"/>
<path d="M559.5 230.08H579.579C580.608 233.371 582.609 235.782 585.582 237.311L570.526 251.18C567.365 249.509 562.874 243.911 562.874 243.911C562.874 243.911 560.683 241.071 559.796 236.912C559.313 234.651 559.5 232.372 559.5 230.08Z" fill="black"/>
<path d="M568.082 70.6082C556.582 187.257 559.509 233.01 559.509 233.01H579.542V230.08H579.576C579.576 230.08 571.082 210.608 571.082 70.6082C570.582 70.6082 570.582 70.6082 569.582 71.1083C568.582 70.6082 568.082 70.6082 568.082 70.6082Z" fill="black"/>
<path d="M559.5 230.08H579.579C580.608 233.371 582.609 235.782 585.582 237.311L570.526 251.18C567.365 249.509 562.874 243.911 562.874 243.911C562.874 243.911 560.683 241.071 559.796 236.912C559.313 234.651 559.5 232.372 559.5 230.08Z" fill="black"/>
</svg>
