<svg width="355" height="252" viewBox="0 0 355 252" fill="none" xmlns="http://www.w3.org/2000/svg">
<path d="M176.782 65.3841C176.704 65.5899 176.849 65.2002 176.782 65.3841C173.032 55.9708 154.074 15.4796 101.321 2.96336C80.6743 -3.99074 41.5573 0.603252 0 24.1456L2.91895 24.8382C12.3328 27.4742 17.9657 33.6771 24.6948 41.0871C35.3467 52.8169 48.7456 67.5715 84.236 75.9919C135.249 88.0951 167.311 73.1155 175.693 68.4105C175.593 68.2673 175.507 68.0919 175.435 67.915C175.382 67.7839 175.337 67.652 175.301 67.5315C168.172 63.6928 142.607 50.0747 115.515 39.1826C84.9004 26.8747 69.1754 26.4894 59.4081 26.2501L58.6016 26.2301C47.5773 27.2117 82.7177 18.0676 118.286 32.2135C149.925 44.7966 170.773 60.8465 176.831 65.643C176.886 65.5967 176.773 65.6913 176.831 65.643L176.782 65.3841Z" fill="black"/>
<path d="M252.679 2.96336C273.326 -3.99074 312.443 0.603252 354 24.1456L351.081 24.8382C341.667 27.4742 336.034 33.6771 329.305 41.0871C318.653 52.8169 305.254 67.5715 269.764 75.9919C218.751 88.0951 186.689 73.1155 178.307 68.4105C178.407 68.2673 178.493 68.0919 178.565 67.915C178.618 67.7839 178.663 67.652 178.699 67.5315C185.828 63.6928 211.393 50.0747 238.485 39.1826C269.1 26.8747 284.825 26.4894 294.592 26.2501L295.398 26.2301C306.423 27.2117 271.282 18.0676 235.714 32.2135C204.075 44.7966 183.227 60.8465 177.169 65.643C177.114 65.5967 177.227 65.6913 177.169 65.643C183.147 33.9477 224.993 9.53211 252.679 2.96336Z" fill="black"/>
<path d="M167.324 230.08H187.403C188.432 233.371 190.433 235.782 193.406 237.311L178.35 251.18C175.19 249.509 170.698 243.911 170.698 243.911C170.698 243.911 168.507 241.071 167.62 236.912C167.138 234.651 167.324 232.372 167.324 230.08Z" fill="black"/>
<path d="M175.906 70.6082C164.406 187.257 167.333 233.01 167.333 233.01H187.366V230.08H187.401C187.401 230.08 178.906 210.608 178.906 70.6082C178.406 70.6082 178.406 70.6082 177.406 71.1083C176.406 70.6082 175.906 70.6082 175.906 70.6082Z" fill="black"/>
<path d="M167.324 230.08H187.403C188.432 233.371 190.433 235.782 193.406 237.311L178.35 251.18C175.19 249.509 170.698 243.911 170.698 243.911C170.698 243.911 168.507 241.071 167.62 236.912C167.138 234.651 167.324 232.372 167.324 230.08Z" fill="black"/>
<path d="M167.324 230.08H187.403C188.432 233.371 190.433 235.782 193.406 237.311L178.35 251.18C175.19 249.509 170.698 243.911 170.698 243.911C170.698 243.911 168.507 241.071 167.62 236.912C167.138 234.651 167.324 232.372 167.324 230.08Z" fill="black"/>
<path d="M175.906 70.6082C164.406 187.257 167.333 233.01 167.333 233.01H187.366V230.08H187.401C187.401 230.08 178.906 210.608 178.906 70.6082C178.406 70.6082 178.406 70.6082 177.406 71.1083C176.406 70.6082 175.906 70.6082 175.906 70.6082Z" fill="black"/>
<path d="M167.324 230.08H187.403C188.432 233.371 190.433 235.782 193.406 237.311L178.35 251.18C175.19 249.509 170.698 243.911 170.698 243.911C170.698 243.911 168.507 241.071 167.62 236.912C167.138 234.651 167.324 232.372 167.324 230.08Z" fill="black"/>
</svg>
